<svg width="39" height="39" viewBox="0 0 39 39" fill="none" xmlns="http://www.w3.org/2000/svg">
<rect x="0.170044" width="38.39" height="38.39" rx="19.195" fill="#C73938"/>
<g clip-path="url(#clip0_2004_13)">
<path d="M12.565 10.1582C11.8683 10.1582 11.235 10.4115 10.76 10.8865C10.2533 11.3932 10 12.0265 10 12.6915C10 13.3882 10.285 14.0215 10.76 14.4965C11.235 14.9715 11.9 15.2565 12.5333 15.2249C12.5333 15.2249 12.565 15.2249 12.5967 15.2249C13.23 15.2249 13.8317 14.9715 14.3067 14.4965C14.7817 14.0215 15.0667 13.3882 15.0667 12.6915C15.0983 12.0265 14.8133 11.3932 14.3383 10.9182C13.8633 10.4115 13.23 10.1582 12.565 10.1582ZM13.8633 14.0532C13.515 14.4015 13.04 14.6232 12.5333 14.5915C12.0583 14.5915 11.5517 14.4015 11.2033 14.0532C10.8233 13.7049 10.6333 13.1982 10.6333 12.6915C10.6333 12.1849 10.8233 11.7099 11.2033 11.3299C11.5517 10.9815 12.0267 10.7915 12.565 10.7915C13.04 10.7915 13.515 10.9815 13.8633 11.3299C14.2433 11.7099 14.4333 12.1849 14.4333 12.6915C14.4333 13.1982 14.2433 13.7049 13.8633 14.0532Z" fill="white"/>
<path d="M13.8 15.8584H11.235C10.7283 15.8584 10.3167 16.2701 10.3167 16.8084V27.8917C10.3167 28.3984 10.76 28.8417 11.2667 28.8417H13.8C14.3067 28.8417 14.75 28.3984 14.75 27.9234V16.8084C14.75 16.3017 14.3067 15.8584 13.8 15.8584ZM14.1167 27.9234C14.1167 28.0817 13.9583 28.2084 13.8 28.2084H11.2667C11.1083 28.2084 10.95 28.0501 10.95 27.8917V16.8084C10.95 16.6501 11.0767 16.4917 11.235 16.4917H13.8C13.9583 16.4917 14.1167 16.6501 14.1167 16.8084V27.9234Z" fill="white"/>
<path d="M24.5666 15.5415H23.9016C22.6666 15.5415 21.495 16.0799 20.735 16.9349V16.4915C20.735 16.1748 20.4183 15.8582 20.1016 15.8582H16.935C16.65 15.8582 16.3016 16.1115 16.3016 16.4598V28.2715C16.3016 28.6198 16.65 28.8415 16.935 28.8415H20.4183C20.7033 28.8415 21.0517 28.6198 21.0517 28.2715V21.4315C21.0517 20.3865 21.8117 19.5631 22.7933 19.5631C23.3 19.5631 23.775 19.7531 24.1233 20.1015C24.44 20.3865 24.5667 20.8298 24.5667 21.3998V28.2082C24.5667 28.5248 24.8833 28.8415 25.2 28.8415H28.3667C28.6833 28.8415 29 28.5248 29 28.2082V20.0382C29 17.5049 27.0683 15.5415 24.5666 15.5415ZM28.3666 28.1765L28.335 28.2082H25.2316L25.2 21.3999C25.2 20.6399 25.01 20.0698 24.5983 19.6582C24.1233 19.1832 23.49 18.9298 22.825 18.9298C21.495 18.9615 20.45 20.0382 20.45 21.4315V28.2082H16.9666V16.4915H20.1016L20.1333 16.5232V18.5182L20.9883 17.6632L21.0199 17.6315C21.6533 16.7448 22.7616 16.1748 23.9333 16.1748H24.5983C26.7199 16.1748 28.3666 17.8848 28.3666 20.0382V28.1765Z" fill="white"/>
</g>
<defs>
<clipPath id="clip0_2004_13">
<rect width="19" height="19" fill="white" transform="translate(10 10)"/>
</clipPath>
</defs>
</svg>
